<svg width="64" height="64" viewBox="0 0 64 64" fill="none" xmlns="http://www.w3.org/2000/svg">
<rect x="0.25" y="0.25" width="63.5" height="63.5" rx="31.75" stroke="url(#paint0_linear_52_871)" stroke-width="0.5"/>
<path fill-rule="evenodd" clip-rule="evenodd" d="M30.2832 19.5484C30.9183 18.0213 33.0816 18.0213 33.7168 19.5484L36.6663 26.6398L44.3221 27.2536C45.9707 27.3858 46.6392 29.4432 45.3831 30.5191L39.5502 35.5156L41.3322 42.9864C41.716 44.5952 39.9659 45.8667 38.5544 45.0046L32 41.0012L25.4456 45.0046C24.0341 45.8667 22.284 44.5952 22.6677 42.9864L24.4498 35.5156L18.6169 30.5191C17.3608 29.4432 18.0293 27.3858 19.6779 27.2536L27.3337 26.6398L30.2832 19.5484Z" fill="#ECECEC" fill-opacity="0.8"/>
<defs>
<linearGradient id="paint0_linear_52_871" x1="32" y1="0" x2="32" y2="64" gradientUnits="userSpaceOnUse">
<stop stop-color="#ECECEC"/>
<stop offset="1" stop-color="white" stop-opacity="0.16"/>
</linearGradient>
</defs>
</svg>
