<svg width="64" height="64" viewBox="0 0 64 64" fill="none" xmlns="http://www.w3.org/2000/svg">
<rect x="0.25" y="0.25" width="63.5" height="63.5" rx="31.75" stroke="url(#paint0_linear_52_904)" stroke-width="0.5"/>
<path fill-rule="evenodd" clip-rule="evenodd" d="M30.2832 19.5486C30.9183 18.0215 33.0816 18.0215 33.7168 19.5486L36.6663 26.6401L44.3221 27.2538C45.9707 27.386 46.6392 29.4434 45.3831 30.5194L39.5502 35.5159L41.3322 42.9866C41.716 44.5954 39.9659 45.867 38.5544 45.0048L32 41.0014L25.4456 45.0048C24.0341 45.867 22.284 44.5954 22.6677 42.9866L24.4498 35.5159L18.6169 30.5194C17.3608 29.4434 18.0293 27.386 19.6779 27.2538L27.3337 26.6401L30.2832 19.5486Z" fill="#ECECEC" fill-opacity="0.8"/>
<defs>
<linearGradient id="paint0_linear_52_904" x1="32" y1="0" x2="32" y2="64" gradientUnits="userSpaceOnUse">
<stop stop-color="#ECECEC"/>
<stop offset="1" stop-color="white" stop-opacity="0.16"/>
</linearGradient>
</defs>
</svg>
