<svg width="142" height="64" viewBox="0 0 142 64" fill="none" xmlns="http://www.w3.org/2000/svg">
<rect x="6" y="18" width="130" height="40" rx="20" fill="white" fill-opacity="0.01"/>
<rect x="6" y="18" width="130" height="40" rx="20" fill="url(#paint0_radial_285_585)" fill-opacity="0.08"/>
<rect x="6.5" y="18.5" width="129" height="39" rx="19.5" stroke="white" stroke-opacity="0.1"/>
<path d="M35.1307 32.8182H36.3636V40.0966C36.3636 40.7462 36.2443 41.2981 36.0057 41.7521C35.767 42.2062 35.4306 42.5509 34.9964 42.7862C34.5623 43.0215 34.0502 43.1392 33.4602 43.1392C32.9034 43.1392 32.4079 43.0381 31.9737 42.8359C31.5395 42.6304 31.1982 42.3388 30.9496 41.9609C30.701 41.5831 30.5767 41.134 30.5767 40.6136H31.7898C31.7898 40.902 31.861 41.1539 32.0036 41.3693C32.1494 41.5814 32.3482 41.7472 32.6001 41.8665C32.852 41.9858 33.1387 42.0455 33.4602 42.0455C33.8149 42.0455 34.1165 41.9709 34.3651 41.8217C34.6136 41.6726 34.8026 41.4538 34.9318 41.1655C35.0644 40.8738 35.1307 40.5175 35.1307 40.0966V32.8182ZM41.7777 43.1591C41.0883 43.1591 40.4834 42.995 39.9631 42.6669C39.446 42.3388 39.0417 41.8797 38.75 41.2898C38.4616 40.6998 38.3175 40.0104 38.3175 39.2216C38.3175 38.4261 38.4616 37.7318 38.75 37.1385C39.0417 36.5452 39.446 36.0845 39.9631 35.7564C40.4834 35.4283 41.0883 35.2642 41.7777 35.2642C42.4671 35.2642 43.0703 35.4283 43.5874 35.7564C44.1077 36.0845 44.5121 36.5452 44.8004 37.1385C45.0921 37.7318 45.2379 38.4261 45.2379 39.2216C45.2379 40.0104 45.0921 40.6998 44.8004 41.2898C44.5121 41.8797 44.1077 42.3388 43.5874 42.6669C43.0703 42.995 42.4671 43.1591 41.7777 43.1591ZM41.7777 42.1051C42.3014 42.1051 42.7322 41.9709 43.0703 41.7024C43.4084 41.4339 43.6586 41.081 43.821 40.6435C43.9834 40.206 44.0646 39.732 44.0646 39.2216C44.0646 38.7112 43.9834 38.2356 43.821 37.7947C43.6586 37.3539 43.4084 36.9976 43.0703 36.7259C42.7322 36.4541 42.3014 36.3182 41.7777 36.3182C41.254 36.3182 40.8232 36.4541 40.4851 36.7259C40.147 36.9976 39.8968 37.3539 39.7344 37.7947C39.572 38.2356 39.4908 38.7112 39.4908 39.2216C39.4908 39.732 39.572 40.206 39.7344 40.6435C39.8968 41.081 40.147 41.4339 40.4851 41.7024C40.8232 41.9709 41.254 42.1051 41.7777 42.1051ZM47.0289 43V35.3636H48.2022V43H47.0289ZM47.6255 34.0909C47.3968 34.0909 47.1996 34.013 47.0339 33.8572C46.8715 33.7015 46.7903 33.5142 46.7903 33.2955C46.7903 33.0767 46.8715 32.8894 47.0339 32.7337C47.1996 32.5779 47.3968 32.5 47.6255 32.5C47.8542 32.5 48.0498 32.5779 48.2122 32.7337C48.3779 32.8894 48.4608 33.0767 48.4608 33.2955C48.4608 33.5142 48.3779 33.7015 48.2122 33.8572C48.0498 34.013 47.8542 34.0909 47.6255 34.0909ZM51.5245 38.4062V43H50.3512V35.3636H51.4847V36.5568H51.5842C51.7631 36.169 52.0349 35.8575 52.3995 35.6222C52.7641 35.3835 53.2347 35.2642 53.8114 35.2642C54.3285 35.2642 54.7809 35.3703 55.1687 35.5824C55.5565 35.7912 55.8581 36.1094 56.0735 36.5369C56.2889 36.9612 56.3967 37.4981 56.3967 38.1477V43H55.2234V38.2273C55.2234 37.6274 55.0676 37.16 54.756 36.8253C54.4445 36.4872 54.0169 36.3182 53.4734 36.3182C53.0988 36.3182 52.7641 36.3994 52.4691 36.5618C52.1774 36.7242 51.9471 36.9612 51.7781 37.2727C51.609 37.5843 51.5245 37.9621 51.5245 38.4062ZM65.7793 43H62.6373V32.8182H65.9185C66.9062 32.8182 67.7514 33.022 68.454 33.4297C69.1567 33.834 69.6953 34.4157 70.0698 35.1747C70.4443 35.9304 70.6316 36.8352 70.6316 37.8892C70.6316 38.9498 70.4426 39.8629 70.0648 40.6286C69.687 41.3909 69.1368 41.9775 68.4142 42.3885C67.6917 42.7962 66.8134 43 65.7793 43ZM63.8702 41.9062H65.6998C66.5416 41.9062 67.2393 41.7438 67.7928 41.419C68.3463 41.0942 68.7589 40.6319 69.0307 40.032C69.3025 39.4321 69.4384 38.7178 69.4384 37.8892C69.4384 37.0672 69.3042 36.3596 69.0357 35.7663C68.7672 35.1697 68.3662 34.7124 67.8326 34.3942C67.2989 34.0727 66.6344 33.9119 65.839 33.9119H63.8702V41.9062ZM72.5407 43V35.3636H73.714V43H72.5407ZM73.1373 34.0909C72.9086 34.0909 72.7114 34.013 72.5456 33.8572C72.3832 33.7015 72.302 33.5142 72.302 33.2955C72.302 33.0767 72.3832 32.8894 72.5456 32.7337C72.7114 32.5779 72.9086 32.5 73.1373 32.5C73.3659 32.5 73.5615 32.5779 73.7239 32.7337C73.8896 32.8894 73.9725 33.0767 73.9725 33.2955C73.9725 33.5142 73.8896 33.7015 73.7239 33.8572C73.5615 34.013 73.3659 34.0909 73.1373 34.0909ZM81.272 37.0739L80.218 37.3722C80.1518 37.1965 80.054 37.0258 79.9247 36.8601C79.7988 36.6911 79.6264 36.5518 79.4077 36.4425C79.1889 36.3331 78.9089 36.2784 78.5675 36.2784C78.1001 36.2784 77.7107 36.3861 77.3991 36.6016C77.0909 36.8137 76.9368 37.0838 76.9368 37.4119C76.9368 37.7036 77.0429 37.9339 77.255 38.103C77.4671 38.272 77.7985 38.4129 78.2493 38.5256L79.3828 38.804C80.0656 38.9697 80.5743 39.2232 80.9091 39.5646C81.2438 39.9027 81.4112 40.3385 81.4112 40.8722C81.4112 41.3097 81.2853 41.7008 81.0334 42.0455C80.7848 42.3902 80.4368 42.6619 79.9893 42.8608C79.5419 43.0597 79.0215 43.1591 78.4283 43.1591C77.6494 43.1591 77.0047 42.9901 76.4943 42.652C75.9839 42.3139 75.6607 41.8201 75.5249 41.1705L76.6385 40.892C76.7446 41.303 76.9451 41.6113 77.2401 41.8168C77.5384 42.0223 77.9278 42.125 78.4084 42.125C78.9553 42.125 79.3894 42.009 79.7109 41.777C80.0357 41.5417 80.1982 41.2599 80.1982 40.9318C80.1982 40.6667 80.1054 40.4446 79.9197 40.2656C79.7341 40.0833 79.4491 39.9474 79.0646 39.858L77.7919 39.5597C77.0926 39.3939 76.5788 39.1371 76.2507 38.7891C75.9259 38.4377 75.7635 37.9986 75.7635 37.4716C75.7635 37.0407 75.8845 36.6596 76.1264 36.3281C76.3717 35.9967 76.7048 35.7365 77.1257 35.5476C77.55 35.3587 78.0305 35.2642 78.5675 35.2642C79.3232 35.2642 79.9164 35.4299 80.3473 35.7614C80.7815 36.0928 81.0897 36.5303 81.272 37.0739ZM86.2797 43.1591C85.5637 43.1591 84.9473 42.9901 84.4302 42.652C83.9132 42.3139 83.5154 41.8482 83.237 41.255C82.9586 40.6617 82.8194 39.9839 82.8194 39.2216C82.8194 38.446 82.9619 37.7616 83.247 37.1683C83.5353 36.5717 83.9364 36.1061 84.4501 35.7713C84.9672 35.4332 85.5704 35.2642 86.2598 35.2642C86.7967 35.2642 87.2806 35.3636 87.7115 35.5625C88.1423 35.7614 88.4953 36.0398 88.7704 36.3977C89.0455 36.7557 89.2162 37.1733 89.2825 37.6506H88.1092C88.0197 37.3026 87.8208 36.9943 87.5126 36.7259C87.2077 36.4541 86.7967 36.3182 86.2797 36.3182C85.8223 36.3182 85.4212 36.4375 85.0765 36.6761C84.7351 36.9115 84.4683 37.2446 84.2761 37.6754C84.0872 38.103 83.9927 38.6051 83.9927 39.1818C83.9927 39.7718 84.0855 40.2855 84.2711 40.723C84.46 41.1605 84.7252 41.5002 85.0666 41.7422C85.4113 41.9841 85.8156 42.1051 86.2797 42.1051C86.5846 42.1051 86.8613 42.0521 87.1099 41.946C87.3585 41.84 87.569 41.6875 87.7413 41.4886C87.9136 41.2898 88.0363 41.0511 88.1092 40.7727H89.2825C89.2162 41.2235 89.0521 41.6295 88.7903 41.9908C88.5318 42.3487 88.1887 42.6338 87.7612 42.8459C87.3369 43.0547 86.8431 43.1591 86.2797 43.1591ZM94.1 43.1591C93.4106 43.1591 92.8057 42.995 92.2853 42.6669C91.7683 42.3388 91.3639 41.8797 91.0723 41.2898C90.7839 40.6998 90.6397 40.0104 90.6397 39.2216C90.6397 38.4261 90.7839 37.7318 91.0723 37.1385C91.3639 36.5452 91.7683 36.0845 92.2853 35.7564C92.8057 35.4283 93.4106 35.2642 94.1 35.2642C94.7894 35.2642 95.3926 35.4283 95.9096 35.7564C96.43 36.0845 96.8343 36.5452 97.1227 37.1385C97.4144 37.7318 97.5602 38.4261 97.5602 39.2216C97.5602 40.0104 97.4144 40.6998 97.1227 41.2898C96.8343 41.8797 96.43 42.3388 95.9096 42.6669C95.3926 42.995 94.7894 43.1591 94.1 43.1591ZM94.1 42.1051C94.6236 42.1051 95.0545 41.9709 95.3926 41.7024C95.7306 41.4339 95.9809 41.081 96.1433 40.6435C96.3057 40.206 96.3869 39.732 96.3869 39.2216C96.3869 38.7112 96.3057 38.2356 96.1433 37.7947C95.9809 37.3539 95.7306 36.9976 95.3926 36.7259C95.0545 36.4541 94.6236 36.3182 94.1 36.3182C93.5763 36.3182 93.1454 36.4541 92.8074 36.7259C92.4693 36.9976 92.219 37.3539 92.0566 37.7947C91.8942 38.2356 91.813 38.7112 91.813 39.2216C91.813 39.732 91.8942 40.206 92.0566 40.6435C92.219 41.081 92.4693 41.4339 92.8074 41.7024C93.1454 41.9709 93.5763 42.1051 94.1 42.1051ZM99.3512 43V35.3636H100.485V36.517H100.564C100.703 36.1392 100.955 35.8326 101.32 35.5973C101.685 35.362 102.096 35.2443 102.553 35.2443C102.639 35.2443 102.747 35.246 102.876 35.2493C103.005 35.2526 103.103 35.2576 103.169 35.2642V36.4574C103.13 36.4474 103.038 36.4325 102.896 36.4126C102.757 36.3894 102.609 36.3778 102.453 36.3778C102.082 36.3778 101.751 36.4557 101.459 36.6115C101.171 36.764 100.942 36.9761 100.773 37.2479C100.607 37.5163 100.525 37.8229 100.525 38.1676V43H99.3512ZM107.211 43.1591C106.575 43.1591 106.013 42.9983 105.526 42.6768C105.039 42.352 104.658 41.8946 104.382 41.3047C104.107 40.7114 103.97 40.0104 103.97 39.2017C103.97 38.3996 104.107 37.7036 104.382 37.1136C104.658 36.5237 105.04 36.0679 105.531 35.7464C106.021 35.425 106.588 35.2642 107.231 35.2642C107.728 35.2642 108.121 35.3471 108.409 35.5128C108.701 35.6752 108.923 35.8608 109.076 36.0696C109.231 36.2751 109.352 36.4441 109.439 36.5767H109.538V32.8182H110.711V43H109.578V41.8267H109.439C109.352 41.9659 109.23 42.1416 109.071 42.3537C108.912 42.5625 108.685 42.7498 108.39 42.9155C108.095 43.0779 107.702 43.1591 107.211 43.1591ZM107.37 42.1051C107.841 42.1051 108.239 41.9825 108.564 41.7372C108.888 41.4886 109.135 41.1456 109.304 40.7081C109.473 40.2673 109.558 39.7585 109.558 39.1818C109.558 38.6117 109.475 38.1129 109.309 37.6854C109.144 37.2545 108.898 36.9197 108.574 36.6811C108.249 36.4392 107.848 36.3182 107.37 36.3182C106.873 36.3182 106.459 36.4458 106.127 36.701C105.799 36.9529 105.552 37.2959 105.387 37.7301C105.224 38.161 105.143 38.6449 105.143 39.1818C105.143 39.7254 105.226 40.2192 105.392 40.6634C105.561 41.1042 105.809 41.4555 106.137 41.7173C106.469 41.9759 106.88 42.1051 107.37 42.1051Z" fill="url(#paint1_linear_285_585)"/>
<rect x="6.5" y="18.5" width="129" height="39" rx="19.5" stroke="url(#paint2_angular_285_585)"/>
<mask id="mask0_285_585" style="mask-type:alpha" maskUnits="userSpaceOnUse" x="-6" y="6" width="154" height="64">
<rect x="6" y="18" width="130" height="40" rx="20" stroke="url(#paint3_angular_285_585)" stroke-width="24"/>
</mask>
<g mask="url(#mask0_285_585)">
<path d="M26.3403 51.5093C26.5418 51.0603 26.1089 50.6263 25.6611 50.8283C25.564 50.8732 25.4894 50.9481 25.4446 51.0453C25.2356 51.4944 25.676 51.9284 26.1238 51.7264C26.2209 51.6815 26.2955 51.6066 26.3403 51.5093Z" fill="white" fill-opacity="0.4"/>
<path d="M14.4892 48.732C14.6907 48.283 14.2578 47.8489 13.81 48.051C13.713 48.0959 13.6383 48.1707 13.5935 48.268C13.3846 48.717 13.8249 49.1511 14.2727 48.949C14.3698 48.9041 14.4444 48.8293 14.4892 48.732Z" fill="white" fill-opacity="0.8"/>
<path d="M37.4891 36.732C37.6911 36.283 37.2571 35.8489 36.808 36.051C36.7108 36.0959 36.6359 36.1707 36.591 36.268C36.3889 36.717 36.823 37.1511 37.272 36.949C37.3693 36.9041 37.4442 36.8293 37.4891 36.732Z" fill="white" fill-opacity="0.4"/>
<path d="M50.9492 48.6905C51.1507 48.2415 50.7178 47.8074 50.2699 48.0095C50.1729 48.0544 50.0983 48.1292 50.0535 48.2265C49.8445 48.6755 50.2849 49.1096 50.7327 48.9075C50.8297 48.8626 50.9044 48.7878 50.9492 48.6905Z" fill="white" fill-opacity="0.4"/>
<path d="M42.5935 58.732C42.3846 58.283 42.8249 57.8489 43.2728 58.051C43.3698 58.0959 43.4444 58.1707 43.4892 58.268C43.6907 58.717 43.2578 59.1511 42.81 58.949C42.7129 58.9041 42.6383 58.8293 42.5935 58.732Z" fill="white" fill-opacity="0.8"/>
<path d="M17.5935 62.732C17.3846 62.283 17.8249 61.8489 18.2727 62.051C18.3698 62.0959 18.4444 62.1707 18.4892 62.268C18.6907 62.717 18.2578 63.1511 17.81 62.949C17.713 62.9041 17.6383 62.8293 17.5935 62.732Z" fill="white" fill-opacity="0.4"/>
<path d="M28.3403 15.5093C28.5418 15.0603 28.1089 14.6263 27.6611 14.8283C27.564 14.8732 27.4894 14.9481 27.4446 15.0453C27.2356 15.4944 27.676 15.9284 28.1238 15.7264C28.2209 15.6815 28.2955 15.6066 28.3403 15.5093Z" fill="white" fill-opacity="0.4"/>
<path d="M16.4892 12.732C16.6907 12.283 16.2578 11.8489 15.81 12.051C15.713 12.0959 15.6383 12.1707 15.5935 12.268C15.3846 12.717 15.8249 13.1511 16.2727 12.949C16.3698 12.9041 16.4444 12.8293 16.4892 12.732Z" fill="white" fill-opacity="0.8"/>
<path d="M44.5935 22.732C44.3846 22.283 44.8249 21.8489 45.2728 22.051C45.3698 22.0959 45.4444 22.1707 45.4892 22.268C45.6907 22.717 45.2578 23.1511 44.81 22.949C44.7129 22.9041 44.6383 22.8293 44.5935 22.732Z" fill="white" fill-opacity="0.8"/>
<path d="M19.5935 26.732C19.3846 26.283 19.8249 25.8489 20.2727 26.051C20.3698 26.0959 20.4444 26.1707 20.4892 26.268C20.6907 26.717 20.2578 27.1511 19.81 26.949C19.713 26.9041 19.6383 26.8293 19.5935 26.732Z" fill="white" fill-opacity="0.4"/>
<path d="M0.949164 33.6905C1.15069 33.2415 0.717779 32.8074 0.269942 33.0095C0.172911 33.0544 0.098288 33.1292 0.0535044 33.2265C-0.155486 33.6755 0.284866 34.1096 0.732703 33.9075C0.829734 33.8626 0.90438 33.7878 0.949164 33.6905Z" fill="white" fill-opacity="0.4"/>
<path d="M4.94916 53.6905C5.15069 53.2415 4.71778 52.8074 4.26994 53.0095C4.17291 53.0544 4.09829 53.1292 4.0535 53.2265C3.84451 53.6755 4.28487 54.1096 4.7327 53.9075C4.82973 53.8626 4.90438 53.7878 4.94916 53.6905Z" fill="white" fill-opacity="0.4"/>
<path d="M6.59088 21.7086C6.38935 21.2595 6.82225 20.8255 7.27008 21.0275C7.36711 21.0724 7.44175 21.1473 7.48654 21.2446C7.69553 21.6936 7.25515 22.1277 6.80732 21.9256C6.71029 21.8807 6.63566 21.8058 6.59088 21.7086Z" fill="white" fill-opacity="0.4"/>
<path d="M11.591 36.732C11.3889 36.283 11.823 35.8489 12.272 36.051C12.3693 36.0959 12.4442 36.1707 12.4891 36.268C12.6911 36.717 12.2571 37.1511 11.808 36.949C11.7107 36.9041 11.6359 36.8293 11.591 36.732Z" fill="white" fill-opacity="0.4"/>
<path d="M98.4892 61.732C98.6907 61.283 98.2578 60.8489 97.81 61.051C97.7129 61.0959 97.6383 61.1707 97.5935 61.268C97.3846 61.717 97.8249 62.1511 98.2728 61.949C98.3698 61.9041 98.4444 61.8293 98.4892 61.732Z" fill="white" fill-opacity="0.8"/>
<path d="M108.591 37.7086C108.389 37.2595 108.822 36.8255 109.27 37.0275C109.367 37.0724 109.442 37.1473 109.487 37.2446C109.696 37.6936 109.255 38.1277 108.807 37.9256C108.71 37.8807 108.636 37.8058 108.591 37.7086Z" fill="white" fill-opacity="0.4"/>
<path d="M121.591 62.732C121.389 62.283 121.823 61.8489 122.272 62.051C122.369 62.0959 122.444 62.1707 122.489 62.268C122.691 62.717 122.257 63.1511 121.808 62.949C121.711 62.9041 121.636 62.8293 121.591 62.732Z" fill="white" fill-opacity="0.4"/>
<path d="M128.591 45.732C128.389 45.283 128.823 44.8489 129.272 45.051C129.369 45.0959 129.444 45.1707 129.489 45.268C129.691 45.717 129.257 46.1511 128.808 45.949C128.711 45.9041 128.636 45.8293 128.591 45.732Z" fill="white" fill-opacity="0.8"/>
<path d="M112.364 49.1783C112.565 48.7293 112.132 48.2952 111.685 48.4973C111.587 48.5422 111.513 48.617 111.468 48.7143C111.259 49.1633 111.699 49.5974 112.147 49.3953C112.244 49.3504 112.319 49.2756 112.364 49.1783Z" fill="white" fill-opacity="0.4"/>
<path d="M100.489 25.732C100.691 25.283 100.258 24.8489 99.81 25.051C99.7129 25.0959 99.6383 25.1707 99.5935 25.268C99.3846 25.717 99.8249 26.1511 100.273 25.949C100.37 25.9041 100.444 25.8293 100.489 25.732Z" fill="white" fill-opacity="0.8"/>
<path d="M90.9492 12.6905C91.1507 12.2415 90.7178 11.8074 90.2699 12.0095C90.1729 12.0544 90.0983 12.1292 90.0535 12.2265C89.8445 12.6755 90.2849 13.1096 90.7327 12.9075C90.8297 12.8626 90.9044 12.7878 90.9492 12.6905Z" fill="white" fill-opacity="0.4"/>
<path d="M123.591 26.732C123.389 26.283 123.823 25.8489 124.272 26.051C124.369 26.0959 124.444 26.1707 124.489 26.268C124.691 26.717 124.257 27.1511 123.808 26.949C123.711 26.9041 123.636 26.8293 123.591 26.732Z" fill="white" fill-opacity="0.4"/>
<path d="M130.591 9.732C130.389 9.28297 130.823 8.84891 131.272 9.05097C131.369 9.09587 131.444 9.17071 131.489 9.268C131.691 9.71703 131.257 10.1511 130.808 9.94903C130.711 9.90413 130.636 9.82929 130.591 9.732Z" fill="white" fill-opacity="0.8"/>
<path d="M114.364 13.1783C114.565 12.7293 114.132 12.2952 113.685 12.4973C113.587 12.5422 113.513 12.617 113.468 12.7143C113.259 13.1633 113.699 13.5974 114.147 13.3953C114.244 13.3504 114.319 13.2756 114.364 13.1783Z" fill="white" fill-opacity="0.4"/>
<path d="M127.949 35.6905C128.151 35.2415 127.718 34.8074 127.27 35.0095C127.173 35.0544 127.098 35.1292 127.054 35.2265C126.845 35.6755 127.285 36.1096 127.733 35.9075C127.83 35.8626 127.904 35.7878 127.949 35.6905Z" fill="white" fill-opacity="0.4"/>
<path d="M139.591 25.7086C139.389 25.2595 139.822 24.8255 140.27 25.0275C140.367 25.0724 140.442 25.1473 140.487 25.2446C140.696 25.6936 140.255 26.1277 139.807 25.9256C139.71 25.8807 139.636 25.8058 139.591 25.7086Z" fill="white" fill-opacity="0.4"/>
<path d="M140.591 46.732C140.389 46.283 140.823 45.8489 141.272 46.051C141.369 46.0959 141.444 46.1707 141.489 46.268C141.691 46.717 141.257 47.1511 140.808 46.949C140.711 46.9041 140.636 46.8293 140.591 46.732Z" fill="white" fill-opacity="0.4"/>
<g filter="url(#filter0_f_285_585)">
<rect x="7" y="19" width="128" height="38" rx="19" stroke="url(#paint4_angular_285_585)" stroke-width="2"/>
<rect x="7" y="19" width="128" height="38" rx="19" stroke="url(#paint5_angular_285_585)" stroke-width="2"/>
</g>
</g>
<defs>
<filter id="filter0_f_285_585" x="0" y="12" width="142" height="52" filterUnits="userSpaceOnUse" color-interpolation-filters="sRGB">
<feFlood flood-opacity="0" result="BackgroundImageFix"/>
<feBlend mode="normal" in="SourceGraphic" in2="BackgroundImageFix" result="shape"/>
<feGaussianBlur stdDeviation="3" result="effect1_foregroundBlur_285_585"/>
</filter>
<radialGradient id="paint0_radial_285_585" cx="0" cy="0" r="1" gradientUnits="userSpaceOnUse" gradientTransform="translate(71 104) rotate(90) scale(43 139.75)">
<stop stop-color="white"/>
<stop offset="1" stop-color="white" stop-opacity="0"/>
</radialGradient>
<linearGradient id="paint1_linear_285_585" x1="71" y1="26" x2="71" y2="50" gradientUnits="userSpaceOnUse">
<stop offset="0.0885417" stop-color="white" stop-opacity="0.3"/>
<stop offset="1" stop-color="white"/>
</linearGradient>
<radialGradient id="paint2_angular_285_585" cx="0" cy="0" r="1" gradientUnits="userSpaceOnUse" gradientTransform="translate(71 38) scale(87.6087 62)">
<stop offset="0.166667" stop-color="white" stop-opacity="0"/>
<stop offset="0.838542" stop-color="white" stop-opacity="0"/>
<stop offset="1" stop-color="white" stop-opacity="0.5"/>
</radialGradient>
<radialGradient id="paint3_angular_285_585" cx="0" cy="0" r="1" gradientUnits="userSpaceOnUse" gradientTransform="translate(71 38) scale(87.6087 62)">
<stop offset="0.166667" stop-color="white" stop-opacity="0"/>
<stop offset="0.838542" stop-color="white" stop-opacity="0"/>
<stop offset="1" stop-color="white" stop-opacity="0.5"/>
</radialGradient>
<radialGradient id="paint4_angular_285_585" cx="0" cy="0" r="1" gradientUnits="userSpaceOnUse" gradientTransform="translate(71 38) scale(87.6087 62)">
<stop offset="0.166667" stop-color="white" stop-opacity="0"/>
<stop offset="0.838542" stop-color="white" stop-opacity="0"/>
<stop offset="1" stop-color="white" stop-opacity="0.5"/>
</radialGradient>
<radialGradient id="paint5_angular_285_585" cx="0" cy="0" r="1" gradientUnits="userSpaceOnUse" gradientTransform="translate(71 38) scale(87.6087 62)">
<stop offset="0.166667" stop-color="white" stop-opacity="0"/>
<stop offset="0.838542" stop-color="white" stop-opacity="0"/>
<stop offset="1" stop-color="white" stop-opacity="0.5"/>
</radialGradient>
</defs>
</svg>
